<svg width="513" height="87" viewBox="0 0 513 87" fill="none" xmlns="http://www.w3.org/2000/svg">
<rect width="513" height="87" fill="#E5E5E5"/>
<rect width="513" height="87" fill="#081926"/>
<path d="M171.403 56L164.244 29.8182H167.465L172.937 51.142H173.192L178.766 29.8182H182.346L187.92 51.142H188.175L193.647 29.8182H196.869L189.71 56H186.437L180.658 35.1364H180.454L174.675 56H171.403ZM208.898 56H200.819V29.8182H209.256C211.796 29.8182 213.969 30.3423 215.776 31.3906C217.583 32.4304 218.968 33.9261 219.931 35.8778C220.894 37.821 221.376 40.1477 221.376 42.858C221.376 45.5852 220.89 47.9332 219.918 49.902C218.947 51.8622 217.532 53.3707 215.674 54.4276C213.816 55.4759 211.558 56 208.898 56ZM203.989 53.1875H208.694C210.859 53.1875 212.653 52.7699 214.076 51.9347C215.499 51.0994 216.56 49.9105 217.259 48.3679C217.958 46.8253 218.308 44.9886 218.308 42.858C218.308 40.7443 217.962 38.9247 217.272 37.3991C216.582 35.8651 215.55 34.6889 214.178 33.8707C212.806 33.044 211.097 32.6307 209.052 32.6307H203.989V53.1875Z" fill="#EEEEEE"/>
<path d="M443.403 56L436.244 29.8182H439.465L444.937 51.142H445.192L450.766 29.8182H454.346L459.92 51.142H460.175L465.647 29.8182H468.869L461.71 56H458.437L452.658 35.1364H452.454L446.675 56H443.403ZM480.898 56H472.819V29.8182H481.256C483.796 29.8182 485.969 30.3423 487.776 31.3906C489.583 32.4304 490.968 33.9261 491.931 35.8778C492.894 37.821 493.376 40.1477 493.376 42.858C493.376 45.5852 492.89 47.9332 491.918 49.902C490.947 51.8622 489.532 53.3707 487.674 54.4276C485.816 55.4759 483.558 56 480.898 56ZM475.989 53.1875H480.694C482.859 53.1875 484.653 52.7699 486.076 51.9347C487.499 51.0994 488.56 49.9105 489.259 48.3679C489.958 46.8253 490.308 44.9886 490.308 42.858C490.308 40.7443 489.962 38.9247 489.272 37.3991C488.582 35.8651 487.55 34.6889 486.178 33.8707C484.806 33.044 483.097 32.6307 481.052 32.6307H475.989V53.1875Z" fill="#EEEEEE"/>
<path d="M26.4027 56L19.2436 29.8182H22.4652L27.9368 51.142H28.1925L33.7663 29.8182H37.3459L42.9197 51.142H43.1754L48.647 29.8182H51.8686L44.7095 56H41.4368L35.6584 35.1364H35.4538L29.6754 56H26.4027ZM63.8984 56H55.8189V29.8182H64.2564C66.7962 29.8182 68.9695 30.3423 70.7763 31.3906C72.5831 32.4304 73.968 33.9261 74.9311 35.8778C75.8942 37.821 76.3757 40.1477 76.3757 42.858C76.3757 45.5852 75.8899 47.9332 74.9183 49.902C73.9467 51.8622 72.532 53.3707 70.674 54.4276C68.8161 55.4759 66.5575 56 63.8984 56ZM58.9893 53.1875H63.6939C65.8587 53.1875 67.6527 52.7699 69.076 51.9347C70.4993 51.0994 71.5604 49.9105 72.2592 48.3679C72.9581 46.8253 73.3075 44.9886 73.3075 42.858C73.3075 40.7443 72.9624 38.9247 72.272 37.3991C71.5817 35.8651 70.5504 34.6889 69.1783 33.8707C67.8061 33.044 66.0973 32.6307 64.0518 32.6307H58.9893V53.1875Z" fill="#EEEEEE"/>
<path d="M311.403 56L304.244 29.8182H307.465L312.937 51.142H313.192L318.766 29.8182H322.346L327.92 51.142H328.175L333.647 29.8182H336.869L329.71 56H326.437L320.658 35.1364H320.454L314.675 56H311.403ZM348.898 56H340.819V29.8182H349.256C351.796 29.8182 353.969 30.3423 355.776 31.3906C357.583 32.4304 358.968 33.9261 359.931 35.8778C360.894 37.821 361.376 40.1477 361.376 42.858C361.376 45.5852 360.89 47.9332 359.918 49.902C358.947 51.8622 357.532 53.3707 355.674 54.4276C353.816 55.4759 351.558 56 348.898 56ZM343.989 53.1875H348.694C350.859 53.1875 352.653 52.7699 354.076 51.9347C355.499 51.0994 356.56 49.9105 357.259 48.3679C357.958 46.8253 358.308 44.9886 358.308 42.858C358.308 40.7443 357.962 38.9247 357.272 37.3991C356.582 35.8651 355.55 34.6889 354.178 33.8707C352.806 33.044 351.097 32.6307 349.052 32.6307H343.989V53.1875Z" fill="#EEEEEE"/>
</svg>
